<?xml version="1.0" encoding="UTF-8"?> <svg xmlns="http://www.w3.org/2000/svg" xmlns:xlink="http://www.w3.org/1999/xlink" width="250" zoomAndPan="magnify" viewBox="0 0 187.5 74.999997" height="100" preserveAspectRatio="xMidYMid meet" version="1.0"><defs><g><g id="id1"></g></g><clipPath id="id2"><path d="M 0 0.101562 L 187 0.101562 L 187 74.898438 L 0 74.898438 Z M 0 0.101562 " clip-rule="nonzero"></path></clipPath></defs><g clip-path="url(#id2)"><path fill="rgb(100%, 100%, 100%)" d="M 0 0.101562 L 187.5 0.101562 L 187.5 157.601562 L 0 157.601562 Z M 0 0.101562 " fill-opacity="1" fill-rule="nonzero"></path><path fill="rgb(100%, 100%, 100%)" d="M 0 0.101562 L 187.5 0.101562 L 187.5 75.101562 L 0 75.101562 Z M 0 0.101562 " fill-opacity="1" fill-rule="nonzero"></path><path fill="rgb(100%, 100%, 100%)" d="M 0 0.101562 L 187.5 0.101562 L 187.5 75.101562 L 0 75.101562 Z M 0 0.101562 " fill-opacity="1" fill-rule="nonzero"></path><path fill="rgb(100%, 100%, 100%)" d="M 0 0.101562 L 187.5 0.101562 L 187.5 75.101562 L 0 75.101562 Z M 0 0.101562 " fill-opacity="1" fill-rule="nonzero"></path></g><path fill="rgb(13.729858%, 17.248535%, 39.219666%)" d="M 93.570312 27.339844 C 92.738281 27.339844 92.070312 28.011719 92.070312 28.839844 C 92.070312 29.667969 92.738281 30.339844 93.570312 30.339844 C 94.398438 30.339844 95.070312 29.667969 95.070312 28.839844 C 95.070312 28.011719 94.398438 27.339844 93.570312 27.339844 " fill-opacity="1" fill-rule="nonzero"></path><path fill="rgb(13.729858%, 17.248535%, 39.219666%)" d="M 97.503906 24.925781 C 96.675781 24.925781 96.003906 25.597656 96.003906 26.425781 C 96.003906 27.253906 96.675781 27.925781 97.503906 27.925781 C 98.332031 27.925781 99.003906 27.253906 99.003906 26.425781 C 99.003906 25.597656 98.332031 24.925781 97.503906 24.925781 " fill-opacity="1" fill-rule="nonzero"></path><path fill="rgb(13.729858%, 17.248535%, 39.219666%)" d="M 89.707031 24.925781 C 88.878906 24.925781 88.207031 25.597656 88.207031 26.425781 C 88.207031 27.253906 88.878906 27.925781 89.707031 27.925781 C 90.535156 27.925781 91.207031 27.253906 91.207031 26.425781 C 91.207031 25.597656 90.535156 24.925781 89.707031 24.925781 " fill-opacity="1" fill-rule="nonzero"></path><path fill="rgb(13.729858%, 17.248535%, 39.219666%)" d="M 93.617188 7.601562 C 91.132812 7.601562 89.117188 9.613281 89.117188 12.101562 C 89.117188 14.585938 91.132812 16.601562 93.617188 16.601562 C 96.101562 16.601562 98.117188 14.585938 98.117188 12.101562 C 98.117188 9.613281 96.101562 7.601562 93.617188 7.601562 " fill-opacity="1" fill-rule="nonzero"></path><path fill="rgb(4.708862%, 45.489502%, 73.728943%)" d="M 93.976562 38.621094 C 91.492188 38.621094 89.476562 40.636719 89.476562 43.121094 C 89.476562 45.605469 91.492188 47.621094 93.976562 47.621094 C 96.460938 47.621094 98.476562 45.605469 98.476562 43.121094 C 98.476562 40.636719 96.460938 38.621094 93.976562 38.621094 " fill-opacity="1" fill-rule="nonzero"></path><path fill="rgb(13.729858%, 17.248535%, 39.219666%)" d="M 105.367188 12 C 102.882812 12 100.867188 14.015625 100.867188 16.5 C 100.867188 18.984375 102.882812 21 105.367188 21 C 107.851562 21 109.867188 18.984375 109.867188 16.5 C 109.867188 14.015625 107.851562 12 105.367188 12 " fill-opacity="1" fill-rule="nonzero"></path><path fill="rgb(13.729858%, 17.248535%, 39.219666%)" d="M 105.367188 34.1875 C 102.882812 34.1875 100.867188 36.203125 100.867188 38.6875 C 100.867188 41.175781 102.882812 43.1875 105.367188 43.1875 C 107.851562 43.1875 109.867188 41.175781 109.867188 38.6875 C 109.867188 36.203125 107.851562 34.1875 105.367188 34.1875 " fill-opacity="1" fill-rule="nonzero"></path><path fill="rgb(13.729858%, 17.248535%, 39.219666%)" d="M 82.351562 12 C 79.867188 12 77.851562 14.015625 77.851562 16.5 C 77.851562 18.984375 79.867188 21 82.351562 21 C 84.835938 21 86.851562 18.984375 86.851562 16.5 C 86.851562 14.015625 84.835938 12 82.351562 12 " fill-opacity="1" fill-rule="nonzero"></path><path fill="rgb(13.729858%, 17.248535%, 39.219666%)" d="M 82.351562 34.1875 C 79.867188 34.1875 77.851562 36.203125 77.851562 38.6875 C 77.851562 41.175781 79.867188 43.1875 82.351562 43.1875 C 84.835938 43.1875 86.851562 41.175781 86.851562 38.6875 C 86.851562 36.203125 84.835938 34.1875 82.351562 34.1875 " fill-opacity="1" fill-rule="nonzero"></path><path fill="rgb(13.729858%, 17.248535%, 39.219666%)" d="M 109.152344 23.523438 C 106.664062 23.523438 104.652344 25.539062 104.652344 28.023438 C 104.652344 30.507812 106.664062 32.523438 109.152344 32.523438 C 111.636719 32.523438 113.652344 30.507812 113.652344 28.023438 C 113.652344 25.539062 111.636719 23.523438 109.152344 23.523438 " fill-opacity="1" fill-rule="nonzero"></path><path fill="rgb(13.729858%, 17.248535%, 39.219666%)" d="M 78.460938 23.691406 C 75.976562 23.691406 73.960938 25.707031 73.960938 28.191406 C 73.960938 30.675781 75.976562 32.691406 78.460938 32.691406 C 80.949219 32.691406 82.960938 30.675781 82.960938 28.191406 C 82.960938 25.707031 80.949219 23.691406 78.460938 23.691406 " fill-opacity="1" fill-rule="nonzero"></path><path fill="rgb(13.729858%, 17.248535%, 39.219666%)" d="M 93.519531 19.175781 C 88.960938 19.175781 85.269531 22.867188 85.269531 27.425781 C 85.269531 31.980469 88.960938 35.675781 93.519531 35.675781 C 98.074219 35.675781 101.769531 31.980469 101.769531 27.425781 C 101.769531 22.867188 98.074219 19.175781 93.519531 19.175781 " fill-opacity="1" fill-rule="nonzero"></path><g fill="rgb(13.729858%, 17.248535%, 39.219666%)" fill-opacity="1"><g transform="translate(44.261357, 64.248172)"><g><path d="M 6.15625 0 L 3.453125 -8.796875 L 3.390625 -8.796875 C 3.398438 -8.585938 3.414062 -8.269531 3.4375 -7.84375 C 3.457031 -7.425781 3.476562 -6.976562 3.5 -6.5 C 3.519531 -6.019531 3.53125 -5.59375 3.53125 -5.21875 L 3.53125 0 L 1.40625 0 L 1.40625 -11.203125 L 4.640625 -11.203125 L 7.296875 -2.640625 L 7.34375 -2.640625 L 10.15625 -11.203125 L 13.390625 -11.203125 L 13.390625 0 L 11.171875 0 L 11.171875 -5.3125 C 11.171875 -5.65625 11.175781 -6.054688 11.1875 -6.515625 C 11.207031 -6.984375 11.226562 -7.425781 11.25 -7.84375 C 11.269531 -8.257812 11.285156 -8.570312 11.296875 -8.78125 L 11.21875 -8.78125 L 8.328125 0 Z M 6.15625 0 "></path></g></g></g><g fill="rgb(13.729858%, 17.248535%, 39.219666%)" fill-opacity="1"><g transform="translate(59.064686, 64.248172)"><g><path d="M 8.265625 0 L 7.453125 -2.671875 L 3.375 -2.671875 L 2.5625 0 L 0 0 L 3.953125 -11.25 L 6.859375 -11.25 L 10.828125 0 Z M 6.890625 -4.65625 L 6.078125 -7.265625 C 6.023438 -7.441406 5.957031 -7.664062 5.875 -7.9375 C 5.789062 -8.207031 5.707031 -8.484375 5.625 -8.765625 C 5.539062 -9.054688 5.472656 -9.304688 5.421875 -9.515625 C 5.367188 -9.304688 5.296875 -9.046875 5.203125 -8.734375 C 5.117188 -8.421875 5.035156 -8.125 4.953125 -7.84375 C 4.867188 -7.570312 4.8125 -7.378906 4.78125 -7.265625 L 3.96875 -4.65625 Z M 6.890625 -4.65625 "></path></g></g></g><g fill="rgb(13.729858%, 17.248535%, 39.219666%)" fill-opacity="1"><g transform="translate(69.896952, 64.248172)"><g><path d="M 4.671875 -11.203125 C 5.691406 -11.203125 6.53125 -11.078125 7.1875 -10.828125 C 7.851562 -10.585938 8.347656 -10.21875 8.671875 -9.71875 C 8.992188 -9.226562 9.15625 -8.609375 9.15625 -7.859375 C 9.15625 -7.335938 9.054688 -6.882812 8.859375 -6.5 C 8.671875 -6.125 8.414062 -5.800781 8.09375 -5.53125 C 7.78125 -5.269531 7.4375 -5.054688 7.0625 -4.890625 L 10.359375 0 L 7.734375 0 L 5.046875 -4.296875 L 3.78125 -4.296875 L 3.78125 0 L 1.40625 0 L 1.40625 -11.203125 Z M 4.515625 -9.265625 L 3.78125 -9.265625 L 3.78125 -6.234375 L 4.546875 -6.234375 C 5.335938 -6.234375 5.898438 -6.363281 6.234375 -6.625 C 6.578125 -6.894531 6.75 -7.285156 6.75 -7.796875 C 6.75 -8.328125 6.566406 -8.703125 6.203125 -8.921875 C 5.835938 -9.148438 5.273438 -9.265625 4.515625 -9.265625 Z M 4.515625 -9.265625 "></path></g></g></g><g fill="rgb(13.729858%, 17.248535%, 39.219666%)" fill-opacity="1"><g transform="translate(80.261579, 64.248172)"><g><path d="M 10.203125 -11.203125 L 6.390625 0 L 3.796875 0 L 0 -11.203125 L 2.40625 -11.203125 L 4.515625 -4.546875 C 4.546875 -4.429688 4.601562 -4.21875 4.6875 -3.90625 C 4.769531 -3.59375 4.851562 -3.265625 4.9375 -2.921875 C 5.019531 -2.578125 5.078125 -2.289062 5.109375 -2.0625 C 5.140625 -2.289062 5.191406 -2.578125 5.265625 -2.921875 C 5.347656 -3.265625 5.425781 -3.585938 5.5 -3.890625 C 5.582031 -4.203125 5.644531 -4.421875 5.6875 -4.546875 L 7.8125 -11.203125 Z M 10.203125 -11.203125 "></path></g></g></g><g fill="rgb(13.729858%, 17.248535%, 39.219666%)" fill-opacity="1"><g transform="translate(90.465221, 64.248172)"><g><path d="M 7.859375 0 L 1.40625 0 L 1.40625 -11.203125 L 7.859375 -11.203125 L 7.859375 -9.265625 L 3.78125 -9.265625 L 3.78125 -6.796875 L 7.578125 -6.796875 L 7.578125 -4.859375 L 3.78125 -4.859375 L 3.78125 -1.96875 L 7.859375 -1.96875 Z M 7.859375 0 "></path></g></g></g><g fill="rgb(13.729858%, 17.248535%, 39.219666%)" fill-opacity="1"><g transform="translate(99.258294, 64.248172)"><g><path d="M 1.40625 0 L 1.40625 -11.203125 L 3.78125 -11.203125 L 3.78125 -1.96875 L 8.328125 -1.96875 L 8.328125 0 Z M 1.40625 0 "></path></g></g></g><g fill="rgb(13.729858%, 17.248535%, 39.219666%)" fill-opacity="1"><g transform="translate(108.128027, 64.248172)"><g></g></g></g><g fill="rgb(13.729858%, 17.248535%, 39.219666%)" fill-opacity="1"><g transform="translate(112.206416, 64.248172)"><g><path d="M 1.40625 -11.203125 L 4.90625 -11.203125 C 6.394531 -11.203125 7.519531 -10.992188 8.28125 -10.578125 C 9.050781 -10.160156 9.4375 -9.425781 9.4375 -8.375 C 9.4375 -7.945312 9.367188 -7.5625 9.234375 -7.21875 C 9.097656 -6.875 8.898438 -6.59375 8.640625 -6.375 C 8.390625 -6.15625 8.082031 -6.015625 7.71875 -5.953125 L 7.71875 -5.875 C 8.082031 -5.800781 8.414062 -5.671875 8.71875 -5.484375 C 9.019531 -5.296875 9.257812 -5.019531 9.4375 -4.65625 C 9.625 -4.300781 9.71875 -3.832031 9.71875 -3.25 C 9.71875 -2.570312 9.550781 -1.988281 9.21875 -1.5 C 8.882812 -1.019531 8.410156 -0.648438 7.796875 -0.390625 C 7.179688 -0.128906 6.453125 0 5.609375 0 L 1.40625 0 Z M 3.78125 -6.765625 L 5.171875 -6.765625 C 5.859375 -6.765625 6.332031 -6.875 6.59375 -7.09375 C 6.863281 -7.3125 7 -7.632812 7 -8.0625 C 7 -8.488281 6.84375 -8.796875 6.53125 -8.984375 C 6.21875 -9.171875 5.71875 -9.265625 5.03125 -9.265625 L 3.78125 -9.265625 Z M 3.78125 -4.890625 L 3.78125 -1.96875 L 5.34375 -1.96875 C 6.050781 -1.96875 6.546875 -2.101562 6.828125 -2.375 C 7.109375 -2.65625 7.25 -3.023438 7.25 -3.484375 C 7.25 -3.765625 7.1875 -4.007812 7.0625 -4.21875 C 6.945312 -4.425781 6.742188 -4.585938 6.453125 -4.703125 C 6.160156 -4.828125 5.765625 -4.890625 5.265625 -4.890625 Z M 3.78125 -4.890625 "></path></g></g></g><g fill="rgb(13.729858%, 17.248535%, 39.219666%)" fill-opacity="1"><g transform="translate(122.75503, 64.248172)"><g><path d="M 5.671875 -6.296875 L 10.109375 -6.296875 L 10.109375 -0.484375 C 9.523438 -0.285156 8.914062 -0.128906 8.28125 -0.015625 C 7.644531 0.0976562 6.925781 0.15625 6.125 0.15625 C 5.007812 0.15625 4.0625 -0.0625 3.28125 -0.5 C 2.507812 -0.945312 1.921875 -1.597656 1.515625 -2.453125 C 1.109375 -3.304688 0.90625 -4.363281 0.90625 -5.625 C 0.90625 -6.800781 1.128906 -7.816406 1.578125 -8.671875 C 2.035156 -9.523438 2.703125 -10.1875 3.578125 -10.65625 C 4.453125 -11.132812 5.515625 -11.375 6.765625 -11.375 C 7.359375 -11.375 7.941406 -11.304688 8.515625 -11.171875 C 9.097656 -11.046875 9.625 -10.882812 10.09375 -10.6875 L 9.3125 -8.78125 C 8.96875 -8.957031 8.570312 -9.101562 8.125 -9.21875 C 7.6875 -9.332031 7.226562 -9.390625 6.75 -9.390625 C 6.0625 -9.390625 5.460938 -9.226562 4.953125 -8.90625 C 4.441406 -8.59375 4.046875 -8.148438 3.765625 -7.578125 C 3.492188 -7.015625 3.359375 -6.347656 3.359375 -5.578125 C 3.359375 -4.847656 3.457031 -4.195312 3.65625 -3.625 C 3.851562 -3.0625 4.164062 -2.617188 4.59375 -2.296875 C 5.03125 -1.984375 5.59375 -1.828125 6.28125 -1.828125 C 6.613281 -1.828125 6.894531 -1.84375 7.125 -1.875 C 7.363281 -1.90625 7.585938 -1.941406 7.796875 -1.984375 L 7.796875 -4.3125 L 5.671875 -4.3125 Z M 5.671875 -6.296875 "></path></g></g></g><g fill="rgb(13.729858%, 17.248535%, 39.219666%)" fill-opacity="1"><g transform="translate(134.123927, 64.248172)"><g><path d="M 8.03125 -3.109375 C 8.03125 -2.441406 7.867188 -1.863281 7.546875 -1.375 C 7.222656 -0.882812 6.753906 -0.503906 6.140625 -0.234375 C 5.523438 0.0234375 4.773438 0.15625 3.890625 0.15625 C 3.503906 0.15625 3.125 0.128906 2.75 0.078125 C 2.382812 0.0234375 2.03125 -0.046875 1.6875 -0.140625 C 1.351562 -0.242188 1.03125 -0.367188 0.71875 -0.515625 L 0.71875 -2.734375 C 1.25 -2.492188 1.800781 -2.28125 2.375 -2.09375 C 2.945312 -1.90625 3.515625 -1.8125 4.078125 -1.8125 C 4.460938 -1.8125 4.773438 -1.859375 5.015625 -1.953125 C 5.253906 -2.054688 5.425781 -2.195312 5.53125 -2.375 C 5.644531 -2.5625 5.703125 -2.769531 5.703125 -3 C 5.703125 -3.28125 5.601562 -3.519531 5.40625 -3.71875 C 5.21875 -3.914062 4.957031 -4.101562 4.625 -4.28125 C 4.300781 -4.457031 3.929688 -4.644531 3.515625 -4.84375 C 3.253906 -4.957031 2.96875 -5.101562 2.65625 -5.28125 C 2.351562 -5.457031 2.0625 -5.671875 1.78125 -5.921875 C 1.507812 -6.179688 1.285156 -6.492188 1.109375 -6.859375 C 0.929688 -7.234375 0.84375 -7.675781 0.84375 -8.1875 C 0.84375 -8.851562 0.992188 -9.421875 1.296875 -9.890625 C 1.609375 -10.367188 2.050781 -10.734375 2.625 -10.984375 C 3.195312 -11.242188 3.867188 -11.375 4.640625 -11.375 C 5.222656 -11.375 5.78125 -11.304688 6.3125 -11.171875 C 6.84375 -11.035156 7.394531 -10.835938 7.96875 -10.578125 L 7.203125 -8.734375 C 6.691406 -8.941406 6.226562 -9.101562 5.8125 -9.21875 C 5.40625 -9.332031 4.988281 -9.390625 4.5625 -9.390625 C 4.269531 -9.390625 4.019531 -9.34375 3.8125 -9.25 C 3.601562 -9.15625 3.441406 -9.019531 3.328125 -8.84375 C 3.222656 -8.675781 3.171875 -8.484375 3.171875 -8.265625 C 3.171875 -7.992188 3.25 -7.765625 3.40625 -7.578125 C 3.5625 -7.398438 3.796875 -7.226562 4.109375 -7.0625 C 4.421875 -6.894531 4.816406 -6.695312 5.296875 -6.46875 C 5.867188 -6.195312 6.359375 -5.914062 6.765625 -5.625 C 7.171875 -5.332031 7.484375 -4.988281 7.703125 -4.59375 C 7.921875 -4.195312 8.03125 -3.703125 8.03125 -3.109375 Z M 8.03125 -3.109375 "></path></g></g></g></svg> 